# xmcd CD database file
#
# Track frame offsets:
#	150
#	15694
#	29774
#	43110
#	57353
#	70104
#	83499
#	98701
#	127481
#	139178
#	153417
#	167222
#	180679
#	196151
#	209910
#	224341
#	237474
#	252128
#
# Disc length: 3553 seconds
#
# Revision: 0
# Processed by: cddbd v1.5.2PL0 Copyright (c) Steve Scherf et al.
# Submitted via: CDex 1.51
#
DISCID=110ddf12
DTITLE=Casey Bill Weldon - The Blues: Slide Guitar Swing 1927-1934 [, Cd 1
DYEAR=2002
DGENRE=Blues
TTITLE0=Turpentine Blues - Will Weldon 
TTITLE1=Hitch Me To Your Buggy And Drive Me Like A Mule - Will Weldon
TTITLE2=Doctor's Blues 
TTITLE3=Please Come On Down To My House - Washboard Rhythm Kings 	
TTITLE4=Brown Skin Woman - Washboard Rhythm Kings 
TTITLE5=Street Walkin' Blues - Washboard Rhythm Kings 
TTITLE6=Somebody Changed The Lock On That Door 
TTITLE7=Flood Water Blues 
TTITLE8=Has My Gal Been Here? 
TTITLE9=You Just As Well Let Her Go 
TTITLE10=Streamline Woman 
TTITLE11=Talkin' To Myself 
TTITLE12=Two Timin' Woman 
TTITLE13=I Believe I'll Make A Change 
TTITLE14=Big Boat 
TTITLE15=Gonna Take My Time 
TTITLE16=We Gonna Move To The Outskirts Of Town 
TTITLE17=Back Door Blues 
EXTD=YEAR: 2002
EXTT0=
EXTT1=
EXTT2=
EXTT3=
EXTT4=
EXTT5=
EXTT6=
EXTT7=
EXTT8=
EXTT9=
EXTT10=
EXTT11=
EXTT12=
EXTT13=
EXTT14=
EXTT15=
EXTT16=
EXTT17=
PLAYORDER=
